<?xml version="1.0" encoding="UTF-8" standalone="no"?>
<!DOCTYPE svg PUBLIC "-//W3C//DTD SVG 20010904//EN"
              "http://www.w3.org/TR/2001/REC-SVG-20010904/DTD/svg10.dtd">

<svg xmlns="http://www.w3.org/2000/svg"
     width="20.7444in" height="14.5222in"
     viewBox="0 0 1867 1307">
  <path id="path24"
        fill="none" stroke="black" stroke-width="1"
        d="M 985.13,577.88
           C 966.92,577.88 950.27,584.52 937.43,595.49
             919.76,561.88 884.52,538.94 843.90,538.94
             785.57,538.94 738.28,586.23 738.28,644.56
             738.28,697.34 776.99,741.41 827.57,749.26
             830.89,750.08 834.27,750.86 837.68,750.86
             837.68,750.86 1081.11,750.86 1081.11,750.86
             1106.63,750.86 1128.20,725.74 1128.20,700.22
             1128.20,700.22 1128.20,698.80 1128.20,698.80
             1128.20,673.28 1106.63,657.50 1081.11,657.50
             1081.11,657.50 1058.38,657.50 1058.38,657.50
             1058.51,654.83 1058.61,653.54 1058.61,651.70
             1058.61,611.12 1025.71,577.88 985.13,577.88M 1048.36,693.52
           C 1070.67,659.62 1061.28,614.06 1027.38,591.74M 950.48,644.12
           C 949.74,606.14 928.50,569.85 892.19,551.66M 597.02,750.86
           C 606.11,750.86 614.77,747.41 622.17,742.27
             652.68,728.11 673.85,697.06 673.85,661.21
             673.85,611.98 633.94,571.99 584.71,571.99
             545.29,571.99 511.87,597.55 500.11,633.02
             491.31,615.97 473.54,604.28 453.03,604.28
             432.97,604.28 415.51,615.44 406.52,631.89
             397.98,600.77 369.51,577.89 335.68,577.89
             314.76,577.89 295.90,586.64 282.52,600.67
             265.85,564.25 229.12,538.94 186.45,538.94
             128.12,538.94 80.83,586.23 80.83,644.56
             80.83,697.34 119.54,741.41 170.12,749.26
             173.44,750.08 176.82,750.86 180.22,750.86
             180.22,750.86 597.02,750.86 597.02,750.86 Z
           M 535.72,587.05
           C 511.67,602.82 497.75,628.22 495.71,654.84M 293.30,654.89
           C 296.57,614.97 276.90,574.93 239.68,554.06M 1691.58,571.90
           C 1652.16,571.90 1618.74,597.50 1606.97,632.98
             1598.18,615.93 1580.40,604.26 1559.90,604.26
             1539.83,604.26 1522.37,615.43 1513.39,631.88
             1504.85,600.76 1476.38,577.88 1442.54,577.88
             1421.62,577.88 1402.76,586.64 1389.38,600.67
             1372.71,564.25 1335.98,538.94 1293.32,538.94
             1234.98,538.94 1187.70,586.23 1187.70,644.56
             1187.70,697.35 1226.41,741.41 1276.98,749.26
             1280.30,750.08 1283.69,750.86 1287.09,750.86
             1287.09,750.86 1703.89,750.86 1703.89,750.86
             1712.98,750.86 1721.64,747.41 1729.04,742.27
             1759.54,728.11 1780.71,697.06 1780.71,661.21
             1780.71,611.98 1740.80,571.90 1691.58,571.90M 1644.67,586.02
           C 1620.14,601.55 1605.79,627.09 1603.54,653.96M 1397.54,652.20
           C 1400.77,612.28 1381.07,572.25 1343.83,551.43M 1737.23,289.41
           C 1737.23,289.41 1730.90,289.41 1730.90,289.41
             1734.22,276.07 1735.17,262.49 1733.26,248.51
             1725.38,190.70 1672.14,150.07 1614.34,157.94
             1574.10,163.43 1542.28,190.83 1529.31,226.53
             1515.11,217.39 1497.72,213.35 1479.67,215.81
             1442.63,220.86 1415.85,252.06 1416.13,289.41
             1416.13,289.41 1409.78,289.41 1409.78,289.41
             1384.26,289.41 1358.91,305.19 1358.91,330.71
             1358.91,330.71 1358.91,332.13 1358.91,332.13
             1358.91,357.65 1384.26,382.76 1409.78,382.76
             1409.78,382.76 1737.23,382.76 1737.23,382.76
             1762.74,382.76 1784.32,357.65 1784.32,332.13
             1784.32,332.13 1784.32,330.71 1784.32,330.71
             1784.32,305.19 1762.74,289.41 1737.23,289.41M 1720.67,319.73
           C 1727.03,308.05 1731.29,294.99 1732.86,280.96M 1440.60,234.48
           C 1413.32,260.04 1409.89,301.50 1431.20,331.04M 174.84,381.59
           C 178.29,382.15 181.87,382.76 185.56,382.76
             185.56,382.76 591.69,382.76 591.69,382.76
             617.21,382.76 638.78,357.65 638.78,332.13
             638.78,332.13 638.78,330.71 638.78,330.71
             638.78,305.19 617.21,289.41 591.69,289.41
             591.69,289.41 585.37,289.41 585.37,289.41
             588.68,276.07 589.63,262.49 587.72,248.51
             579.85,190.71 526.60,150.07 468.81,157.94
             428.56,163.43 396.75,190.83 383.78,226.53
             369.57,217.39 352.18,213.02 334.14,215.48
             305.98,219.32 283.75,238.62 274.83,263.66
             267.91,261.66 260.49,261.02 252.90,262.06
             244.38,263.22 236.62,266.34 229.98,270.89
             215.39,246.20 186.97,231.33 156.77,235.44
             116.56,240.92 88.41,278.13 93.89,318.34
             99.29,357.96 135.32,386.02 174.84,381.59M 607.13,291.23
           C 589.02,285.05 571.69,292.36 560.69,306.59M 289.89,239.26
           C 276.95,253.89 270.91,272.22 271.49,290.30M 393.22,208.16
           C 381.40,228.60 377.19,251.36 379.73,273.14M 237.06,308.97
           C 238.15,289.00 231.14,268.67 215.98,253.31M 756.33,382.76
           C 756.33,382.76 1254.48,382.76 1254.48,382.76
             1279.99,382.76 1301.56,357.65 1301.56,332.13
             1301.56,332.13 1301.56,330.71 1301.56,330.71
             1301.56,305.19 1279.99,289.41 1254.48,289.41
             1254.48,289.41 1252.37,289.41 1252.37,289.41
             1256.51,276.07 1257.92,262.20 1255.97,247.90
             1249.00,196.78 1201.92,160.81 1150.80,167.78
             1115.49,172.59 1087.50,196.47 1075.86,227.68
             1060.33,207.42 1034.69,195.78 1007.59,199.47
             996.98,200.92 987.23,204.56 978.69,209.88
             964.32,155.60 911.45,119.27 854.39,127.04
             792.62,135.46 749.37,192.69 757.79,254.47
             759.48,266.84 763.14,278.74 768.36,289.41
             768.36,289.41 756.33,289.41 756.33,289.41
             730.81,289.41 705.46,305.19 705.46,330.71
             705.46,330.71 705.46,332.13 705.46,332.13
             705.46,357.65 727.26,382.76 756.33,382.76M 979.69,238.69
           C 980.23,198.93 959.71,160.10 922.72,139.01M 1106.29,187.91
           C 1077.71,209.20 1064.80,243.70 1069.69,276.65M 1497.19,1053.60
           C 1497.19,1053.60 1488.14,1053.60 1488.14,1053.60
             1490.74,1044.27 1491.61,1035.60 1490.33,1026.22
             1485.62,991.65 1453.77,967.27 1419.20,971.98
             1405.10,973.90 1392.73,980.26 1383.34,989.55
             1367.68,950.91 1327.36,926.21 1284.16,932.09
             1263.55,934.90 1245.43,944.22 1231.61,957.71
             1208.71,907.30 1154.77,875.62 1097.10,883.48
             1026.71,893.07 977.41,957.92 987.01,1028.32
             988.19,1036.98 989.87,1045.31 992.63,1053.26
             969.41,1055.67 948.17,1071.66 948.17,1095.14
             948.17,1095.14 948.17,1096.57 948.17,1096.57
             948.17,1122.08 969.97,1146.96 999.04,1146.96
             999.04,1146.96 1497.19,1146.96 1497.19,1146.96
             1522.70,1146.96 1544.28,1122.09 1544.28,1096.57
             1544.28,1096.57 1544.28,1095.14 1544.28,1095.14
             1544.28,1069.62 1522.70,1053.60 1497.19,1053.60M 1464.16,983.95
           C 1435.86,963.54 1396.38,969.94 1375.97,998.24
             1367.64,1009.79 1363.78,1023.19 1364.04,1036.40M 1243.02,1008.33
           C 1240.89,953.01 1202.94,903.29 1146.58,888.75M 817.06,1053.60
           C 817.06,1053.60 810.74,1053.60 810.74,1053.60
             814.05,1040.27 815.00,1026.69 813.10,1012.70
             805.22,954.90 751.98,914.26 694.18,922.14
             665.98,925.98 641.92,940.56 625.58,961.27
             616.83,954.88 606.05,951.06 594.39,951.06
             574.68,951.06 557.49,961.82 548.37,977.80
             532.00,968.74 512.68,964.68 492.72,967.40
             443.48,974.11 409.01,1019.46 415.72,1068.70
             419.44,1096.00 435.05,1119.08 456.61,1132.80
             465.77,1141.21 477.60,1146.96 489.61,1146.96
             489.61,1146.96 498.32,1146.96 498.32,1146.96
             498.32,1146.96 511.01,1146.96 511.01,1146.96
             511.01,1146.96 817.06,1146.96 817.06,1146.96
             842.58,1146.96 864.15,1121.84 864.15,1096.32
             864.15,1096.32 864.15,1094.90 864.15,1094.90
             864.15,1069.38 842.58,1053.60 817.06,1053.60M 834.53,1055.29
           C 810.75,1046.02 787.35,1060.77 778.09,1084.55M 575.07,1004.13
           C 564.36,988.78 548.79,976.64 529.67,970.30" />
</svg>
