<?xml version="1.0" encoding="UTF-8"?>
<svg
   xmlns:svg="http://www.w3.org/2000/svg"
   xmlns="http://www.w3.org/2000/svg"
   viewBox="0 0 1866.6667 1306.6667"
   xml:space="preserve"
   id="svg2"
   version="1.1">
         <g
     transform="matrix(1.3333333,0,0,-1.3333333,0,1306.6667)"
     id="g10"><path
       id="path12"
       style="fill:#defff9;fill-opacity:1;fill-rule:nonzero;stroke:none"
       d="M 0,0 H 1400 V 980 H 0 Z" /><g
       id="g14"><g
         clip-path="url(#clipPath20)"
         id="g16"><g
           transform="translate(738.7129,546.6982)"
           id="g22">
           <path
             id="path24"
             style="fill:#ffffff;fill-opacity:1;fill-rule:nonzero;stroke:none"
             d="m 0,0 c -13.655,0 -26.141,-4.979 -35.768,-13.205 -13.251,25.207 -39.675,42.407 -70.13,42.407 -43.742,0 -79.201,-35.459 -79.201,-79.2 0,-39.575 29.028,-72.615 66.952,-78.504 2.487,-0.611 5.026,-1.196 7.579,-1.196 H 71.976 c 19.133,0 35.311,18.832 35.311,37.968 v 1.064 c 0,19.136 -16.178,30.968 -35.311,30.968 H 54.932 c 0.099,2 0.168,2.969 0.168,4.349 C 55.1,-24.918 30.432,0 0,0" /></g><g
           transform="translate(738.7129,550.1982)"
           id="g26"><path
             id="path28"
             style="fill:#96d6c9;fill-opacity:1;fill-rule:nonzero;stroke:none"
             d="m 0,0 c -14.238,-0.216 -27.304,-5.149 -38.242,-14.23 1.832,-0.236 3.664,-0.473 5.497,-0.708 -11.124,20.704 -30.325,35.81 -53.088,41.686 -22.098,5.705 -46.063,1.362 -65.157,-10.914 -38.634,-24.839 -48.746,-78.295 -23.156,-116.035 12.372,-18.246 32.084,-30.76 53.701,-34.701 7.63,-1.391 14.782,-1.296 22.487,-1.296 h 85.65 78.198 c 11.186,0 20.955,1.91 30.081,9.23 16.758,13.445 21.044,40.005 5.851,56.078 -12.367,13.083 -30.513,11.692 -46.89,11.692 1.167,-1.167 2.333,-2.333 3.5,-3.5 C 60.612,-28.968 33.633,-0.419 0,0 c -4.516,0.056 -4.511,-6.944 0,-7 30.027,-0.374 53.365,-25.789 51.432,-55.698 -0.123,-1.906 1.685,-3.5 3.5,-3.5 16.272,0 34.882,1.684 45.256,-13.76 13.292,-19.792 -5.649,-49.24 -28.242,-49.24 h -57.027 -94.298 -27.848 c -14.792,0 -29.332,5.094 -41.555,13.303 -18.893,12.687 -30.822,34.185 -32.616,56.725 -1.805,22.652 7.143,44.861 23.376,60.569 16.58,16.046 40.407,23.256 63.139,20.032 23.986,-3.402 44.715,-18.723 56.093,-39.903 1.146,-2.133 3.835,-2.088 5.497,-0.708 9.474,7.865 21.006,11.993 33.293,12.18 4.51,0.068 4.517,7.068 0,7" /></g><g
           transform="translate(786.1289,459.9902)"
           id="g30"><path
             id="path32"
             style="fill:#ffffff;fill-opacity:1;fill-rule:nonzero;stroke:none"
             d="M 0,0 C 16.73,25.418 9.688,59.586 -15.731,76.318" /></g><g
           transform="translate(789.1514,458.2236)"
           id="g34"><path
             id="path36"
             style="fill:#96d6c9;fill-opacity:1;fill-rule:nonzero;stroke:none"
             d="m 0,0 c 17.415,27.202 9.638,63.094 -16.987,81.106 -3.751,2.538 -7.249,-3.53 -3.534,-6.043 C 3.063,59.107 9.226,27.384 -6.045,3.533 -8.486,-0.281 -2.426,-3.788 0,0" /></g><g
           transform="translate(712.7363,497.0352)"
           id="g38"><path
             id="path40"
             style="fill:#ffffff;fill-opacity:1;fill-rule:nonzero;stroke:none"
             d="M 0,0 C -0.559,28.473 -16.483,55.685 -43.713,69.324" /></g><g
           transform="translate(716.2363,497.0352)"
           id="g42"><path
             id="path44"
             style="fill:#96d6c9;fill-opacity:1;fill-rule:nonzero;stroke:none"
             d="m 0,0 c -0.876,30.611 -18.154,58.353 -45.447,72.346 -4.009,2.056 -7.551,-3.984 -3.533,-6.044 C -23.867,53.426 -7.809,28.254 -7,0 -6.871,-4.504 0.129,-4.517 0,0" /></g><g
           transform="translate(447.6885,417)"
           id="g46"><path
             id="path48"
             style="fill:#ffffff;fill-opacity:1;fill-rule:nonzero;stroke:none"
             d="m 0,0 c 6.813,0 13.31,2.583 18.858,6.44 22.876,10.615 38.749,33.898 38.749,60.777 0,36.915 -29.925,66.903 -66.84,66.903 -29.56,0 -54.621,-19.165 -63.441,-45.765 -6.597,12.786 -19.923,21.548 -35.301,21.548 -15.047,0 -28.138,-8.362 -34.875,-20.7 -6.404,23.336 -27.755,40.491 -53.125,40.491 -15.687,0 -29.831,-6.564 -39.865,-17.084 -12.497,27.307 -40.04,46.289 -72.034,46.289 -43.741,0 -79.2,-35.458 -79.2,-79.199 0,-39.575 29.027,-72.615 66.951,-78.504 2.488,-0.611 5.027,-1.196 7.579,-1.196 z" /></g><g
           transform="translate(447.6885,414)"
           id="g50"><path
             id="path52"
             style="fill:#96d6c9;fill-opacity:1;fill-rule:nonzero;stroke:none"
             d="m 0,0 c 6.362,0.181 12.182,1.857 17.774,4.87 5.552,2.99 11.099,6.083 16.11,9.949 9.102,7.022 16.266,16.248 21.034,26.69 9.527,20.86 7.726,45.454 -3.859,65.084 -11.062,18.744 -30.664,30.723 -52.012,33.582 -22.884,3.064 -46.169,-6.503 -61.304,-23.645 -6.218,-7.043 -10.751,-15.355 -13.792,-24.213 2.132,0.279 4.265,0.558 6.397,0.836 -7.702,14.286 -22.127,22.959 -38.323,23.266 -15.72,0.298 -30.249,-9.006 -37.897,-22.441 2.133,-0.279 4.265,-0.558 6.397,-0.836 -5.519,19.149 -19.9,34.024 -38.782,40.326 -21.104,7.044 -44.709,0.282 -60.058,-15.381 1.833,-0.236 3.665,-0.473 5.497,-0.709 -9.823,20.969 -27.837,36.772 -49.771,44.079 -21.711,7.233 -46,4.298 -65.884,-6.691 C -388.721,132.52 -401.927,79.737 -378.998,40.479 -363.901,14.631 -335.572,0 -306.111,0 H -245.622 -57.929 0 c 4.514,0 4.514,7 0,7 h -122.034 -172.206 -16.807 c -15.341,0 -31.274,6.611 -43.286,15.9 -18.469,14.283 -29.036,36.577 -29.241,59.8 -0.204,23.039 10.828,44.722 28.493,59.209 17.6,14.433 41.675,19.439 63.734,14.685 23.243,-5.01 42.486,-21.405 52.485,-42.749 0.965,-2.059 4.023,-2.213 5.497,-0.708 13.608,13.886 33.166,19.201 51.917,13.988 17.154,-4.771 30.353,-18.947 35.223,-35.845 0.829,-2.874 4.878,-3.506 6.397,-0.836 14.32,25.158 50.419,24.612 64.132,-0.824 1.524,-2.827 5.464,-1.882 6.397,0.836 7.267,21.165 24.888,36.8 46.646,41.807 21.605,4.971 44.379,-2.745 59.566,-18.531 C 52.498,97.534 57.574,73.695 51.499,52.295 48.411,41.421 42.053,31.75 33.923,23.992 29.688,19.951 24.807,16.703 19.651,13.967 13.159,10.522 7.583,7.215 0,7 -4.504,6.872 -4.517,-0.128 0,0" /></g><g
           transform="translate(401.7173,539.8218)"
           id="g54"><path
             id="path56"
             style="fill:#ffffff;fill-opacity:1;fill-rule:nonzero;stroke:none"
             d="M 0,0 C -18.037,-11.818 -28.472,-30.869 -30.003,-50.824" /></g><g
           transform="translate(399.9507,542.8437)"
           id="g58"><path
             id="path60"
             style="fill:#96d6c9;fill-opacity:1;fill-rule:nonzero;stroke:none"
             d="m 0,0 c -18.404,-12.364 -29.801,-31.775 -31.736,-53.846 -0.395,-4.499 6.609,-4.461 7,0 1.706,19.464 12.063,36.914 28.269,47.802 C 7.258,-3.542 3.759,2.525 0,0" /></g><g
           transform="translate(219.9321,488.957)"
           id="g62"><path
             id="path64"
             style="fill:#ffffff;fill-opacity:1;fill-rule:nonzero;stroke:none"
             d="M 0,0 C 2.452,29.93 -12.293,59.956 -40.202,75.601" /></g><g
           transform="translate(223.4321,488.957)"
           id="g66"><path
             id="path68"
             style="fill:#96d6c9;fill-opacity:1;fill-rule:nonzero;stroke:none"
             d="m 0,0 c 2.331,32.082 -14.063,62.646 -41.935,78.623 -3.923,2.248 -7.448,-3.801 -3.533,-6.044 C -19.586,57.743 -4.841,29.716 -7,0 -7.328,-4.506 -0.325,-4.475 0,0" /></g><g
           transform="translate(1268.4551,551.1826)"
           id="g70"><path
             id="path72"
             style="fill:#ffffff;fill-opacity:1;fill-rule:nonzero;stroke:none"
             d="m 0,0 c -29.56,0 -54.62,-19.196 -63.44,-45.796 -6.597,12.785 -19.923,21.532 -35.302,21.532 -15.047,0 -28.138,-8.37 -34.874,-20.708 -6.405,23.336 -27.755,40.488 -53.126,40.488 -15.687,0 -29.83,-6.567 -39.865,-17.087 -12.497,27.307 -40.04,46.289 -72.034,46.289 -43.741,0 -79.2,-35.459 -79.2,-79.2 0,-39.576 29.028,-72.616 66.951,-78.504 2.488,-0.612 5.028,-1.197 7.579,-1.197 H 9.233 c 6.814,0 13.31,2.583 18.859,6.441 22.876,10.614 38.749,33.897 38.749,60.776 C 66.841,-30.051 36.915,0 0,0" /></g><g
           transform="translate(1268.4551,554.6826)"
           id="g74"><path
             id="path76"
             style="fill:#96d6c9;fill-opacity:1;fill-rule:nonzero;stroke:none"
             d="m 0,0 c -30.374,-0.329 -56.963,-19.67 -66.815,-48.365 2.132,0.278 4.264,0.557 6.397,0.836 -7.702,14.285 -22.129,22.959 -38.324,23.265 -15.721,0.298 -30.248,-9.006 -37.897,-22.441 2.133,-0.279 4.265,-0.558 6.398,-0.836 -5.519,19.15 -19.901,34.024 -38.782,40.326 -21.106,7.044 -44.709,0.281 -60.059,-15.381 1.832,-0.237 3.664,-0.473 5.497,-0.709 -9.823,20.969 -27.837,36.772 -49.771,44.079 -21.71,7.233 -45.999,4.299 -65.883,-6.691 -40.248,-22.246 -53.454,-75.028 -30.525,-114.287 15.096,-25.848 43.426,-40.479 72.886,-40.479 h 60.49 187.693 54.491 3.37 c 10.772,0 20.575,5.839 29.369,11.51 19.879,12.819 31.545,35.373 31.806,58.832 C 70.771,-31.729 37.986,-0.39 0,0 c -4.516,0.046 -4.512,-6.954 0,-7 23.202,-0.238 44.162,-12.689 55.555,-32.888 12.086,-21.426 9.56,-48.264 -4.54,-68.021 -7.409,-10.381 -18.029,-16.736 -29.019,-22.655 -4.35,-2.344 -9.234,-3.119 -14.108,-3.119 h -16.46 -171.726 -123.009 c -11.501,0 -23.904,4.772 -33.722,10.447 -9.843,5.689 -18.198,13.799 -24.561,23.184 -13.235,19.52 -16.027,44.446 -8.668,66.679 7.119,21.506 24.632,38.771 45.747,46.566 22.831,8.429 48.499,4.747 68.592,-8.676 11.532,-7.706 20.439,-18.864 26.289,-31.355 0.965,-2.059 4.024,-2.212 5.497,-0.708 13.61,13.886 33.167,19.202 51.918,13.988 17.154,-4.77 30.354,-18.946 35.224,-35.844 0.828,-2.874 4.878,-3.506 6.397,-0.836 14.32,25.157 50.418,24.611 64.131,-0.825 1.525,-2.827 5.464,-1.881 6.398,0.836 C -51.232,-24.501 -27.14,-7.293 0,-7 4.512,-6.951 4.516,0.049 0,0" /></g><g
           transform="translate(1233.2852,540.6001)"
           id="g78"><path
             id="path80"
             style="fill:#ffffff;fill-opacity:1;fill-rule:nonzero;stroke:none"
             d="M 0,0 C -18.398,-11.65 -29.16,-30.795 -30.842,-50.942" /></g><g
           transform="translate(1231.5186,543.6221)"
           id="g82"><path
             id="path84"
             style="fill:#96d6c9;fill-opacity:1;fill-rule:nonzero;stroke:none"
             d="m 0,0 c -18.769,-12.193 -30.471,-31.71 -32.575,-53.964 -0.425,-4.494 6.579,-4.453 7,0 1.86,19.672 12.56,37.17 29.108,47.92 C 7.303,-3.595 3.798,2.467 0,0" /></g><g
           transform="translate(1047.9678,490.9746)"
           id="g86"><path
             id="path88"
             style="fill:#ffffff;fill-opacity:1;fill-rule:nonzero;stroke:none"
             d="M 0,0 C 2.423,29.933 -12.353,59.945 -40.274,75.561" /></g><g
           transform="translate(1051.4678,490.9746)"
           id="g90"><path
             id="path92"
             style="fill:#96d6c9;fill-opacity:1;fill-rule:nonzero;stroke:none"
             d="m 0,0 c 2.3,32.083 -14.119,62.634 -42.008,78.583 -3.925,2.244 -7.45,-3.805 -3.533,-6.044 C -19.645,57.729 -4.87,29.718 -7,0 -7.323,-4.507 -0.321,-4.476 0,0" /></g><g
           transform="translate(1302.6885,763)"
           id="g94"><path
             id="path96"
             style="fill:#ffffff;fill-opacity:1;fill-rule:nonzero;stroke:none"
             d="m 0,0 h -4.743 c 2.486,10 3.196,20.182 1.767,30.667 -5.906,43.341 -45.83,73.812 -89.17,67.905 -30.175,-4.112 -54.036,-24.66 -63.762,-51.426 -10.65,6.852 -23.693,9.88 -37.224,8.037 C -220.906,51.397 -240.994,28 -240.778,0 h -4.766 c -19.134,0 -38.144,-11.832 -38.144,-30.968 v -1.064 c 0,-19.136 19.01,-37.968 38.144,-37.968 H 0 c 19.134,0 35.312,18.832 35.312,37.968 v 1.064 C 35.312,-11.832 19.134,0 0,0" /></g><g
           transform="translate(1302.6885,767)"
           id="g98"><path
             id="path100"
             style="fill:#96d6c9;fill-opacity:1;fill-rule:nonzero;stroke:none"
             d="m 0,0 h -4.743 c 1.125,-1.477 2.25,-2.954 3.375,-4.431 10.633,43.261 -14.518,87.399 -57.17,100.137 -41.639,12.436 -85.795,-11.535 -100.745,-51.566 1.714,0.696 3.428,1.394 5.141,2.091 -19.55,12.172 -44.291,12.137 -63.672,-0.345 -16.646,-10.72 -26.373,-29.763 -26.464,-49.386 1.167,1.167 2.333,2.333 3.5,3.5 -9.318,0 -17.912,-1.013 -26.407,-5.159 -9.409,-4.592 -16.623,-13.225 -18.867,-23.477 -4.855,-22.184 13.975,-44.55 35.395,-47.951 5.078,-0.807 10.49,-0.413 15.609,-0.413 h 30.715 179.306 c 12.133,0 27.488,-2.055 38.888,2.942 16.695,7.318 27.857,25.843 25.063,44.11 C 36.012,-10.907 18.16,-0.285 0,0 -4.517,0.071 -4.51,-6.929 0,-7 11.452,-7.18 22.71,-11.758 28.86,-21.819 34.918,-31.73 32.534,-44.696 26.789,-54.087 19.94,-65.281 8.484,-70 -4.026,-70 h -64.114 -168.983 -7.779 c -10.063,0 -18.888,4.901 -25.666,12.102 -9.674,10.276 -12.784,26.908 -3.588,38.455 8.167,10.257 21.082,12.443 33.378,12.443 1.915,0 3.491,1.592 3.5,3.5 0.081,17.424 8.557,33.536 22.997,43.341 17.001,11.545 39.39,11.064 56.606,0.346 2.057,-1.281 4.379,0.049 5.142,2.091 13.819,37.006 54.162,57.319 92.135,46.678 C -21.262,77.989 1.467,36.425 -8.118,-2.569 -8.659,-4.771 -7.066,-7 -4.743,-7 H 0 c 4.514,0 4.514,7 0,7" /></g><g
           transform="translate(1290.2705,740.2651)"
           id="g102"><path
             id="path104"
             style="fill:#ffffff;fill-opacity:1;fill-rule:nonzero;stroke:none"
             d="M 0,0 C 4.769,8.754 7.965,18.549 9.14,29.065" /></g><g
           transform="translate(1293.293,738.4985)"
           id="g106"><path
             id="path108"
             style="fill:#96d6c9;fill-opacity:1;fill-rule:nonzero;stroke:none"
             d="m 0,0 c 5.151,9.698 8.279,19.94 9.617,30.832 0.55,4.474 -6.457,4.42 -7,0 C 1.437,21.229 -1.51,12.07 -6.045,3.533 -8.161,-0.451 -2.118,-3.987 0,0" /></g><g
           transform="translate(1080.2598,804.1816)"
           id="g110"><path
             id="path112"
             style="fill:#ffffff;fill-opacity:1;fill-rule:nonzero;stroke:none"
             d="M 0,0 C -20.461,-19.159 -23.031,-50.251 -7.055,-72.398" /></g><g
           transform="translate(1077.7852,806.6567)"
           id="g114"><path
             id="path116"
             style="fill:#96d6c9;fill-opacity:1;fill-rule:nonzero;stroke:none"
             d="m 0,0 c -20.96,-20.157 -24.35,-52.765 -7.603,-76.64 2.572,-3.665 8.644,-0.172 6.045,3.534 C -16.559,-51.722 -13.91,-23.087 4.949,-4.95 8.208,-1.816 3.252,3.128 0,0" /></g><g
           transform="translate(131.1079,693.8774)"
           id="g118"><path
             id="path120"
             style="fill:#ffffff;fill-opacity:1;fill-rule:nonzero;stroke:none"
             d="m 0,0 c 2.583,-0.416 5.27,-0.877 8.037,-0.877 h 304.544 c 19.133,0 35.311,18.832 35.311,37.967 v 1.065 c 0,19.136 -16.178,30.968 -35.311,30.968 h -4.743 c 2.486,10 3.196,20.181 1.767,30.667 -5.906,43.34 -45.83,73.811 -89.17,67.905 -30.177,-4.112 -54.036,-24.66 -63.763,-51.425 -10.649,6.851 -23.692,10.129 -37.223,8.285 C 98.336,121.678 81.669,107.206 74.977,88.431 69.792,89.924 64.221,90.404 58.531,89.628 52.144,88.758 46.323,86.42 41.346,83.008 30.403,101.523 9.098,112.67 -13.551,109.584 -43.702,105.475 -64.814,77.577 -60.705,47.426 -56.657,17.718 -29.633,-3.319 0,0" /></g><g
           transform="translate(130.1772,690.7524)"
           id="g122"><path
             id="path124"
             style="fill:#96d6c9;fill-opacity:1;fill-rule:nonzero;stroke:none"
             d="m 0,0 c 13.802,-1.986 28.439,-0.752 42.321,-0.752 h 84.694 170.729 13.718 c 9.786,0 18.372,3.076 26.044,9.23 14.048,11.27 19.606,32.131 11.512,48.394 -7.565,15.202 -24.746,19.376 -40.249,19.376 1.125,-1.477 2.25,-2.954 3.375,-4.431 10.63,43.261 -14.518,87.398 -57.17,100.137 -41.64,12.436 -85.796,-11.535 -100.746,-51.566 1.714,0.696 3.428,1.394 5.142,2.091 -32.036,19.943 -73.836,5.091 -86.837,-29.977 1.435,0.814 2.87,1.629 4.305,2.444 -12.557,3.313 -25.454,1.345 -36.328,-5.787 l 4.788,-1.256 c -11.594,19.034 -32.55,30.121 -54.839,28.641 -20.972,-1.391 -39.654,-14.691 -48.665,-33.503 -9.14,-19.083 -6.687,-42.172 5.56,-59.271 12.139,-16.948 32.949,-25.942 53.577,-23.895 4.448,0.441 4.491,7.446 0,7 -17.96,-1.782 -34.905,5.157 -46.452,19.029 -12.004,14.421 -14.081,34.864 -7.349,52.003 6.779,17.256 23.632,29.274 41.792,31.493 20.192,2.467 39.868,-7.852 50.332,-25.03 0.953,-1.564 3.172,-2.316 4.789,-1.255 9.356,6.136 20.092,7.942 30.934,5.081 1.966,-0.518 3.638,0.643 4.306,2.445 11.484,30.977 48.613,43.187 76.553,25.794 2.058,-1.281 4.379,0.049 5.142,2.091 13.82,37.006 54.163,57.318 92.135,46.678 39.137,-10.967 61.863,-52.531 52.281,-91.526 -0.541,-2.201 1.051,-4.43 3.375,-4.43 9.68,0 18.472,-1.134 26.579,-6.917 9.402,-6.709 12.012,-18.721 9.573,-29.48 C 341.441,17.503 327.386,6.248 311.812,6.248 H 261.544 74.665 26.686 C 18.553,6.248 9.945,5.586 1.861,6.75 -2.552,7.385 -4.454,0.641 0,0" /></g><g
           transform="translate(455.2671,761.6313)"
           id="g126"><path
             id="path128"
             style="fill:#ffffff;fill-opacity:1;fill-rule:nonzero;stroke:none"
             d="M 0,0 C -13.583,4.634 -26.573,-0.847 -34.826,-11.516" /></g><g
           transform="translate(456.1978,765.0063)"
           id="g130"><path
             id="path132"
             style="fill:#96d6c9;fill-opacity:1;fill-rule:nonzero;stroke:none"
             d="m 0,0 c -14.49,4.54 -28.845,-0.765 -38.231,-12.416 -2.804,-3.48 2.117,-8.465 4.95,-4.95 7.898,9.804 19.104,14.474 31.42,10.616 C 2.458,-8.104 4.292,-1.345 0,0" /></g><g
           transform="translate(217.3789,800.5977)"
           id="g134"><path
             id="path136"
             style="fill:#ffffff;fill-opacity:1;fill-rule:nonzero;stroke:none"
             d="M 0,0 C -9.7,-10.963 -14.236,-24.707 -13.797,-38.266" /></g><g
           transform="translate(214.9038,803.0728)"
           id="g138"><path
             id="path140"
             style="fill:#96d6c9;fill-opacity:1;fill-rule:nonzero;stroke:none"
             d="m 0,0 c -9.857,-11.483 -15.099,-25.58 -14.822,-40.741 0.082,-4.509 7.083,-4.516 7,0 C -8.063,-27.488 -3.701,-15.028 4.95,-4.95 7.874,-1.544 2.945,3.43 0,0" /></g><g
           transform="translate(294.8623,823.9233)"
           id="g142"><path
             id="path144"
             style="fill:#ffffff;fill-opacity:1;fill-rule:nonzero;stroke:none"
             d="M 0,0 C -8.867,-15.331 -12.017,-32.393 -10.113,-48.726" /></g><g
           transform="translate(291.8403,825.6899)"
           id="g146"><path
             id="path148"
             style="fill:#96d6c9;fill-opacity:1;fill-rule:nonzero;stroke:none"
             d="m 0,0 c -8.699,-15.441 -12.457,-32.847 -10.591,-50.493 0.469,-4.441 7.474,-4.487 7,0 -1.742,16.474 1.496,32.514 9.635,46.96 C 8.263,0.405 2.215,3.932 0,0" /></g><g
           transform="translate(177.7603,748.3296)"
           id="g150"><path
             id="path152"
             style="fill:#ffffff;fill-opacity:1;fill-rule:nonzero;stroke:none"
             d="M 0,0 C 0.821,14.972 -4.437,30.223 -15.801,41.737" /></g><g
           transform="translate(181.2603,748.3296)"
           id="g154"><path
             id="path156"
             style="fill:#96d6c9;fill-opacity:1;fill-rule:nonzero;stroke:none"
             d="m 0,0 c 0.677,16.586 -5.356,32.241 -16.826,44.212 -3.128,3.265 -8.071,-1.692 -4.95,-4.95 C -11.531,28.57 -6.397,14.776 -7,0 -7.184,-4.516 -0.184,-4.498 0,0" /></g><g
           transform="translate(567.1445,693)"
           id="g158"><path
             id="path160"
             style="fill:#ffffff;fill-opacity:1;fill-rule:nonzero;stroke:none"
             d="m 0,0 h 373.544 c 19.134,0 35.311,18.832 35.311,37.968 v 1.064 C 408.855,58.168 392.678,70 373.544,70 h -1.58 c 3.109,10 4.162,20.398 2.7,31.125 -5.224,38.331 -40.533,65.295 -78.863,60.071 -26.478,-3.608 -47.465,-21.511 -56.196,-44.91 -11.644,15.188 -30.872,23.915 -51.193,21.147 -7.954,-1.084 -15.269,-3.813 -21.668,-7.8 -10.779,40.694 -50.425,67.938 -93.209,62.108 C 27.217,185.429 -5.214,142.518 1.098,96.197 2.362,86.918 5.106,78 9.026,70 H 0 C -19.134,70 -38.145,58.168 -38.145,39.032 V 37.968 C -38.145,18.834 -21.799,0 0,0" /></g><g
           transform="translate(567.1445,690)"
           id="g162"><path
             id="path164"
             style="fill:#96d6c9;fill-opacity:1;fill-rule:nonzero;stroke:none"
             d="m 0,0 h 108.578 190.327 62.35 11.864 c 18.077,0 33.066,13.655 38.224,30.394 3.64,11.814 0.978,24.739 -7.101,34.013 C 396.258,73.573 383.69,77 371.964,77 c 1.125,-1.477 2.25,-2.954 3.375,-4.431 11.908,38.692 -9.438,79.661 -47.664,92.41 -37.279,12.431 -77.626,-8.759 -91.445,-44.7 1.951,0.515 3.901,1.03 5.85,1.545 -18.474,23.441 -51.598,29.227 -77.102,13.846 1.713,-0.697 3.427,-1.394 5.141,-2.091 -12.43,45.389 -58.522,73.054 -104.423,63.315 C 21.477,187.511 -8.809,143.019 -2.277,98.521 -0.902,89.149 1.908,80.266 6.004,71.733 7.011,73.489 8.019,75.245 9.026,77 -0.422,77 -9.446,76.991 -18.373,73.332 -29.236,68.879 -37.959,60.008 -40.508,48.364 -45.965,23.43 -24.282,0.464 0,0 c 4.517,-0.086 4.508,6.914 0,7 -20.75,0.396 -38.053,19.88 -33.476,40.789 2.231,10.195 11.38,17.044 20.777,20.215 C -5.653,70.382 1.712,70 9.026,70 c 2.816,0 4.143,2.932 3.022,5.267 -20.59,42.89 0.292,95.235 44.946,111.814 44.429,16.495 93.986,-10.123 106.375,-55.363 0.592,-2.159 3.201,-3.261 5.142,-2.092 23.071,13.914 52.038,8.288 68.62,-12.752 1.8,-2.285 5.021,-0.611 5.849,1.544 12.501,32.517 48.222,49.932 81.567,40.207 35.62,-10.39 54.78,-49.304 44.042,-84.194 -0.673,-2.188 1.151,-4.431 3.375,-4.431 10.767,0 20.906,-3.17 28.142,-11.477 7.602,-8.726 7.001,-22.063 2.298,-31.945 C 396.602,14.387 384.7,7 371.385,7 H 326.172 142.699 4.417 0 C -4.514,7 -4.514,0 0,0" /></g><g
           transform="translate(734.6367,801.0303)"
           id="g166"><path
             id="path168"
             style="fill:#ffffff;fill-opacity:1;fill-rule:nonzero;stroke:none"
             d="M 0,0 C 0.403,29.812 -14.982,58.929 -42.718,74.738" /></g><g
           transform="translate(738.1367,801.0303)"
           id="g170"><path
             id="path172"
             style="fill:#96d6c9;fill-opacity:1;fill-rule:nonzero;stroke:none"
             d="m 0,0 c 0.16,32.048 -16.753,61.643 -44.451,77.76 -3.91,2.275 -7.432,-3.776 -3.533,-6.044 C -22.373,56.813 -6.852,29.627 -7,0 -7.022,-4.515 -0.022,-4.513 0,0" /></g><g
           transform="translate(829.5723,839.1025)"
           id="g174"><path
             id="path176"
             style="fill:#ffffff;fill-opacity:1;fill-rule:nonzero;stroke:none"
             d="M 0,0 C -21.433,-15.96 -31.118,-41.833 -27.447,-66.536" /></g><g
           transform="translate(827.8057,842.1245)"
           id="g178"><path
             id="path180"
             style="fill:#96d6c9;fill-opacity:1;fill-rule:nonzero;stroke:none"
             d="m 0,0 c -21.975,-16.742 -32.828,-43.131 -29.056,-70.489 0.615,-4.455 7.359,-2.551 6.75,1.862 -3.296,23.902 6.655,47.966 25.839,62.583 C 7.073,-3.347 3.593,2.737 0,0" /></g><g
           transform="translate(1122.6885,190)"
           id="g182"><path
             id="path184"
             style="fill:#ffffff;fill-opacity:1;fill-rule:nonzero;stroke:none"
             d="m 0,0 h -6.786 c 1.956,7 2.605,13.496 1.646,20.53 -3.533,25.925 -27.414,44.202 -53.339,40.67 -10.572,-1.44 -19.85,-6.204 -26.893,-13.171 -11.74,28.973 -41.975,47.494 -74.371,43.079 -15.455,-2.106 -29.036,-9.092 -39.406,-19.206 -17.168,37.799 -57.615,61.55 -100.86,55.658 -52.788,-7.195 -89.75,-55.815 -82.555,-108.605 0.884,-6.492 2.149,-12.741 4.217,-18.701 -17.413,-1.802 -33.341,-13.793 -33.341,-31.403 v -1.065 c 0,-19.134 16.345,-37.786 38.144,-37.786 H 0 c 19.134,0 35.312,18.65 35.312,37.786 v 1.065 C 35.312,-12.014 19.134,0 0,0" /></g><g
           transform="translate(1122.6885,194)"
           id="g186"><path
             id="path188"
             style="fill:#96d6c9;fill-opacity:1;fill-rule:nonzero;stroke:none"
             d="m 0,0 h -6.786 c 1.125,-1.477 2.25,-2.953 3.375,-4.431 6.404,22.363 -2.482,45.719 -22.052,58.171 -19.695,12.531 -45.836,8.666 -62.384,-7.174 1.95,-0.514 3.9,-1.029 5.85,-1.544 -9.022,21.627 -27.079,37.768 -49.764,43.908 -24.736,6.693 -51.502,-1.021 -69.863,-18.537 1.832,-0.237 3.664,-0.472 5.497,-0.708 -20.231,43.673 -69.31,66.68 -115.871,55.095 -43.978,-10.942 -74.88,-52.292 -74.96,-97.195 -0.02,-10.948 1.997,-21.908 5.486,-32.26 1.125,1.478 2.25,2.954 3.375,4.431 -21.49,-2.561 -39.18,-18.318 -36.206,-41.151 2.623,-20.136 20.601,-35.605 40.816,-35.605 h 33.696 176.436 152.57 c 12.18,0 23.368,0.075 33.693,8.297 12.919,10.288 19.599,27.551 14.891,43.677 C 33.036,-8.711 15.96,-0.255 0,0 -4.517,0.072 -4.51,-6.928 0,-7 11.493,-7.184 22.723,-11.869 28.86,-21.963 34.893,-31.885 32.563,-44.824 26.789,-54.214 20.334,-64.711 9.275,-70 -2.698,-70 h -46.767 -184.296 -136.057 c -10.695,0 -20.393,2.576 -28.247,10.442 -7.988,8 -11.554,20.441 -8.63,31.382 3.321,12.429 16.681,19.512 28.598,20.932 2.113,0.252 4.172,2.065 3.375,4.431 -15.562,46.17 6.522,96.615 51.119,116.302 46.11,20.355 100.604,-2.376 121.431,-47.338 0.98,-2.113 3.989,-2.146 5.497,-0.708 16.821,16.046 40.492,22.357 63.053,16.737 20.088,-5.005 36.941,-20 44.875,-39.019 0.995,-2.385 3.773,-3.532 5.85,-1.544 14.307,13.694 35.513,16.432 52.765,6.758 C -12.241,38.344 -4.62,16.78 -10.161,-2.569 -10.789,-4.763 -9.044,-7 -6.786,-7 H 0 c 4.514,0 4.514,7 0,7" /></g><g
           transform="translate(1097.9268,242.2236)"
           id="g190"><path
             id="path192"
             style="fill:#ffffff;fill-opacity:1;fill-rule:nonzero;stroke:none"
             d="m 0,0 c -21.223,15.304 -50.832,10.506 -66.137,-10.716 -6.242,-8.654 -9.137,-18.703 -8.941,-28.607" /></g><g
           transform="translate(1099.6934,245.2461)"
           id="g194"><path
             id="path196"
             style="fill:#96d6c9;fill-opacity:1;fill-rule:nonzero;stroke:none"
             d="m 0,0 c -14.444,10.096 -33.38,12.333 -49.623,5.246 -18.912,-8.253 -30.773,-27.025 -30.722,-47.592 0.011,-4.513 7.011,-4.514 7,0 -0.044,17.841 9.95,33.45 26.035,41.015 14.248,6.7 31.144,4.116 43.777,-4.714 C 0.177,-8.638 3.67,-2.565 0,0" /></g><g
           transform="translate(932.0977,223.9443)"
           id="g198"><path
             id="path200"
             style="fill:#ffffff;fill-opacity:1;fill-rule:nonzero;stroke:none"
             d="M 0,0 C -1.593,41.482 -30.054,78.761 -72.314,89.664" /></g><g
           transform="translate(935.5977,223.9443)"
           id="g202"><path
             id="path204"
             style="fill:#96d6c9;fill-opacity:1;fill-rule:nonzero;stroke:none"
             d="m 0,0 c -2.007,43.908 -32.384,81.735 -74.884,93.039 -4.368,1.162 -6.22,-5.591 -1.861,-6.75 C -37.322,75.804 -8.866,40.826 -7,0 -6.795,-4.495 0.206,-4.515 0,0" /></g><g
           transform="translate(612.6885,190)"
           id="g206"><path
             id="path208"
             style="fill:#ffffff;fill-opacity:1;fill-rule:nonzero;stroke:none"
             d="m 0,0 h -4.743 c 2.486,10 3.196,20.182 1.767,30.667 -5.906,43.341 -45.829,73.812 -89.17,67.905 -21.148,-2.882 -39.185,-13.814 -51.443,-29.34 -6.561,4.79 -14.641,7.656 -23.387,7.656 -14.782,0 -27.669,-8.069 -34.505,-20.051 -12.275,6.793 -26.765,9.84 -41.735,7.8 -36.92,-5.032 -62.772,-39.037 -57.74,-75.955 2.79,-20.475 14.499,-37.781 30.666,-48.068 6.866,-6.3 15.736,-10.614 24.746,-10.614 h 6.529 9.516 H 0 c 19.134,0 35.312,18.832 35.312,37.968 v 1.064 C 35.312,-11.832 19.134,0 0,0" /></g><g
           transform="translate(612.6885,194)"
           id="g210"><path
             id="path212"
             style="fill:#96d6c9;fill-opacity:1;fill-rule:nonzero;stroke:none"
             d="m 0,0 h -4.743 c 1.125,-1.477 2.25,-2.953 3.375,-4.431 9.229,37.555 -8.303,76.717 -42.715,94.431 -34.523,17.772 -77.806,7.812 -101.981,-22.23 1.414,0.182 2.828,0.365 4.242,0.547 -20.981,14.672 -49.688,8.158 -62.681,-13.698 1.596,0.418 3.192,0.837 4.789,1.256 -22.689,12.189 -50.015,11.615 -71.993,-1.874 -18.613,-11.424 -30.395,-31.313 -32.973,-52.785 -2.849,-23.717 7.714,-47.724 26.07,-62.656 9.819,-7.988 19.961,-15.214 33.066,-15.56 5.538,-0.146 11.08,0 16.612,0 h 151.011 71.314 c 9.019,0 17.237,0.683 25.38,5.448 18.396,10.767 27.1,37.03 14.793,55.353 C 26.195,-5.224 12.783,-0.201 0,0 -4.517,0.071 -4.51,-6.929 0,-7 11.452,-7.18 22.71,-11.759 28.86,-21.819 34.918,-31.73 32.534,-44.696 26.789,-54.087 19.861,-65.411 8.319,-70 -4.29,-70 h -67.042 -156.55 c -3.718,0 -7.41,-0.214 -11.133,0 -2.693,0.154 -5.419,-0.029 -8.117,0.042 -6.4,0.169 -12.437,3.147 -17.579,6.729 -9.201,6.41 -17.608,13.644 -23.688,23.177 -6.292,9.865 -9.413,21.448 -9.677,33.087 -0.471,20.677 9.986,40.612 26.598,52.709 19.865,14.466 46.747,15.629 68.23,4.086 1.69,-0.907 3.789,-0.426 4.789,1.256 11.169,18.787 35.246,23.676 53.104,11.186 1.177,-0.823 3.324,-0.591 4.241,0.548 22.113,27.479 60.251,36.893 92.308,21.724 C -16.285,69.155 0.404,32.108 -8.118,-2.569 -8.659,-4.771 -7.066,-7 -4.743,-7 H 0 c 4.514,0 4.514,7 0,7" /></g><g
           transform="translate(625.7852,188.7373)"
           id="g214"><path
             id="path216"
             style="fill:#ffffff;fill-opacity:1;fill-rule:nonzero;stroke:none"
             d="M 0,0 C -17.83,6.947 -35.375,-4.114 -42.321,-21.943" /></g><g
           transform="translate(626.7158,192.1123)"
           id="g218"><path
             id="path220"
             style="fill:#96d6c9;fill-opacity:1;fill-rule:nonzero;stroke:none"
             d="m 0,0 c -20.325,7.386 -38.99,-5.728 -46.627,-24.388 -1.71,-4.179 5.064,-5.979 6.75,-1.861 6.297,15.386 21.548,25.483 38.016,19.499 C 2.392,-8.296 4.208,-1.529 0,0" /></g><g
           transform="translate(431.2251,227.0977)"
           id="g222"><path
             id="path224"
             style="fill:#ffffff;fill-opacity:1;fill-rule:nonzero;stroke:none"
             d="M 0,0 C -8.032,11.503 -19.706,20.608 -34.046,25.364" /></g><g
           transform="translate(434.2471,228.8643)"
           id="g226"><path
             id="path228"
             style="fill:#96d6c9;fill-opacity:1;fill-rule:nonzero;stroke:none"
             d="m 0,0 c -9.076,12.696 -21.377,21.885 -36.138,26.973 -4.279,1.475 -6.102,-5.288 -1.861,-6.75 C -25.079,15.769 -14,7.595 -6.044,-3.533 -3.443,-7.171 2.631,-3.681 0,0" /></g></g></g></g></svg>