<?xml version="1.0" encoding="UTF-8" standalone="no"?>
<svg
   xmlns="http://www.w3.org/2000/svg"
   viewBox="0 0 110 60"
   version="1.1">
  <g>
    <path
       d="m 66.932566,10.922283 c -5.363146,0 -9.653669,1.877101 -13.139714,4.826834 C 48.966018,6.6317614 39.580505,0.46413816 28.586057,0.46413816 13.032912,0.46413816 0.42951246,13.335695 0.42951246,28.88883 c 0,14.212348 10.18997754,26.011288 23.86601254,28.156535 0.804477,0.268156 1.87711,0.268156 2.681578,0.268156 0,0 65.430414,0 65.430414,0 6.703919,0 12.603383,-6.703935 12.603383,-13.407864 0,0 0,-0.536323 0,-0.536323 0,-6.703936 -5.899464,-10.994457 -12.603383,-10.994457 0,0 -6.167613,0 -6.167613,0 0,-0.804468 0,-1.072625 0,-1.608945 0,-10.726292 -8.849192,-19.843649 -19.575494,-19.843649"
       style="fill:none;stroke:#000000;stroke-width:0.80447245" />
  </g>
</svg>
